#!OML:ASF F:\VICON\USERDATA\INSTALL\rory3\rory3.ASF
:FULLY-SPECIFIED
:DEGREES
1032
root 1.29815 18.1535 0.720713 8.60997 -45.6424 -9.94955
lowerback 11.5493 4.19829 -5.16141
upperback 3.16146 4.63707 -4.7167
thorax -3.15869 2.26177 -2.68689
lowerneck -4.07974 7.22545 -6.18234
upperneck 8.27921 9.50596 7.73583
head 2.69806 4.80465 3.95627
rclavicle 3.97569e-015 2.54444e-014
rhumerus -40.6773 16.8891 -87.9437
rradius 91.3555
rwrist -18.8612
rhand -24.6675 12.9537
rfingers 7.12502
rthumb 1.83273 -17.0181
lclavicle 3.97569e-015 2.54444e-014
lhumerus -28.7738 6.78986 72.7635
lradius 116.928
lwrist 37.2876
lhand -1.51248 16.2946
lfingers 7.12502
lthumb 24.1409 44.7956
rfemur -7.85957 17.6327 16.3274
rtibia 46.807
rfoot -5.14365 1.40298
rtoes -24.9736
lfemur -28.8416 -2.22934 -0.731745
ltibia 56.0519
lfoot -3.47059 -11.1901
ltoes -20.0792
1033
root 1.30404 18.054 0.636693 7.89315 -46.7151 -9.2125
lowerback 11.8076 4.21314 -5.84777
upperback 3.13856 4.55126 -4.55606
thorax -3.3899 2.221 -2.15022
lowerneck -3.97953 7.49562 -6.35884
upperneck 7.99571 9.90361 7.50298
head 2.55463 4.9893 3.89046
rclavicle -6.36111e-015 4.45278e-014
rhumerus -41.6768 17.0802 -87.8766
rradius 91.3393
rwrist -18.2988
rhand -25.3052 12.4419
rfingers 7.12502
rthumb 1.21683 -17.5343
lclavicle -6.36111e-015 4.45278e-014
lhumerus -27.5732 6.73392 72.3496
lradius 117.973
lwrist 37.8618
lhand -1.53164 16.5734
lfingers 7.12502
lthumb 24.1225 45.0768
rfemur -8.07084 18.7616 15.8777
rtibia 47.6881
rfoot -7.49231 0.842522
rtoes -27.8268
lfemur -28.6457 -1.1627 -1.72099
ltibia 57.0385
lfoot -4.9122 -10.9376
ltoes -18.8092
1034
root 1.31224 17.9496 0.560224 7.55057 -47.3659 -8.88337
lowerback 12.0448 4.05341 -6.0926
upperback 3.08937 4.29953 -4.26657
thorax -3.6094 2.10169 -1.69392
lowerneck -3.7061 7.73564 -6.66285
upperneck 7.45589 10.2753 7.12276
head 2.2977 5.15365 3.7734
rclavicle 7.55382e-014 -3.81667e-014
rhumerus -42.6376 17.3076 -87.7071
rradius 91.2727
rwrist -18.0436
rhand -24.9685 12.5317
rfingers 7.12502
rthumb 1.54201 -17.4425
lclavicle 7.55382e-014 -3.81667e-014
lhumerus -26.2982 6.76342 71.9162
lradius 118.937
lwrist 38.2453
lhand -1.64097 16.5919
lfingers 7.12502
lthumb 24.0177 45.1092
rfemur -8.28334 19.5666 15.8572
rtibia 48.4339
rfoot -9.76169 0.877595
rtoes -30.0668
lfemur -28.7065 -0.476532 -2.20062
ltibia 57.685
lfoot -6.97007 -9.70421
ltoes -18.4535
1035
root 1.32197 17.8579 0.50177 6.86596 -47.4869 -8.18085
lowerback 12.3104 3.7941 -6.23866
upperback 3.22816 3.926 -4.14754
thorax -3.61961 1.91566 -1.44122
lowerneck -3.7233 7.80025 -6.69898
upperneck 6.77498 10.4215 6.57869
head 2.08935 5.21625 3.56609
rclavicle 1.12115e-013 3.65764e-014
rhumerus -43.3747 17.1907 -87.5655
rradius 91.2497
rwrist -17.6296
rhand -24.9877 12.8252
rfingers 7.12502
rthumb 1.52349 -17.1491
lclavicle 1.12115e-013 3.65764e-014
lhumerus -24.4964 6.6095 71.3967
lradius 119.855
lwrist 38.6646
lhand -1.99626 16.1152
lfingers 7.12502
lthumb 23.677 44.677
rfemur -8.22374 19.6019 15.6427
rtibia 49.0491
rfoot -11.9794 0.685027
rtoes -30.7757
lfemur -28.7794 -0.507327 -2.80139
ltibia 57.9925
lfoot -9.13775 -8.22995
ltoes -14.3046
1036
root 1.33053 17.7597 0.447239 6.29513 -47.321 -7.5353
lowerback 12.4861 3.48415 -6.18157
upperback 3.34451 3.51831 -4.08203
thorax -3.58445 1.7124 -1.34433
lowerneck -3.89321 7.8965 -6.61361
upperneck 6.44068 10.5868 6.21396
head 2.02115 5.29591 3.4247
rclavicle 2.06736e-014 1.59028e-015
rhumerus -44.196 16.8182 -87.4741
rradius 91.26
rwrist -17.1552
rhand -25.2689 12.8402
rfingers 7.12502
rthumb 1.25185 -17.1358
lclavicle 2.06736e-014 1.59028e-015
lhumerus -22.6999 6.38628 70.8582
lradius 120.874
lwrist 39.046
lhand -2.19979 15.6501
lfingers 7.12502
lthumb 23.4818 44.2371
rfemur -8.09785 19.3248 15.4938
rtibia 49.5952
rfoot -14.1614 -0.560644
rtoes -31.4045
lfemur -28.9563 -0.854484 -3.19718
ltibia 58.103
lfoot -10.7587 -7.80728
ltoes -10.8836
1037
root 1.33773 17.6468 0.385214 6.11715 -47.0395 -7.27145
lowerback 12.6283 3.13909 -5.88893
upperback 3.30138 3.0979 -3.93095
thorax -3.69106 1.50854 -1.28949
lowerneck -3.88937 8.11534 -6.6374
upperneck 6.40623 10.8904 6.05804
head 1.99477 5.44208 3.37529
rclavicle -8.66701e-014 1.11319e-014
rhumerus -45.1904 16.3188 -87.4061
rradius 91.2113
rwrist -16.7857
rhand -25.5056 12.7448
rfingers 7.12502
rthumb 1.02329 -17.2325
lclavicle -8.66701e-014 1.11319e-014
lhumerus -21.1231 6.21822 70.3427
lradius 121.889
lwrist 39.1035
lhand -2.17474 16.1213
lfingers 7.12502
lthumb 23.5058 44.7051
rfemur -8.0431 19.0911 15.6573
rtibia 50.0857
rfoot -16.3443 -2.22236
rtoes -32.1852
lfemur -29.283 -1.09983 -3.16067
ltibia 58.1519
lfoot -11.7908 -8.42036
ltoes -7.60685
1038
root 1.34341 17.5427 0.318954 6.29361 -46.6465 -7.3166
lowerback 12.7149 2.77132 -5.47068
upperback 3.22402 2.67339 -3.71532
thorax -3.8023 1.3033 -1.23348
lowerneck -3.81357 8.30357 -6.61066
upperneck 6.26568 11.1515 5.83286
head 1.93043 5.56678 3.2848
rclavicle -8.74653e-014 -1.11319e-014
rhumerus -46.0346 15.7784 -87.2977
rradius 91.0436
rwrist -16.44
rhand -25.6987 12.8088
rfingers 7.12502
rthumb 0.836766 -17.1693
lclavicle -8.74653e-014 -1.11319e-014
lhumerus -19.4216 6.14494 69.8654
lradius 122.755
lwrist 38.9362
lhand -2.06476 16.7958
lfingers 7.12502
lthumb 23.6113 45.3661
rfemur -8.11479 18.6188 16.0791
rtibia 50.4739
rfoot -18.3293 -3.86993
rtoes -32.9849
lfemur -29.7706 -1.08714 -2.81533
ltibia 58.258
lfoot -12.9861 -8.99276
ltoes -8.43364
1039
root 1.34585 17.4505 0.258612 6.77807 -46.2376 -7.60873
lowerback 12.5206 2.41533 -4.87081
upperback 3.2181 2.31572 -3.49903
thorax -3.68127 1.1263 -1.27434
lowerneck -3.91641 8.45396 -6.44942
upperneck 6.15592 11.3678 5.53235
head 1.92425 5.67186 3.15988
rclavicle 1.70955e-014 -6.36111e-015
rhumerus -46.7708 15.1517 -87.1669
rradius 90.9056
rwrist -15.9132
rhand -25.9229 13.0198
rfingers 7.12502
rthumb 0.620182 -16.9591
lclavicle 1.70955e-014 -6.36111e-015
lhumerus -17.5489 6.0107 69.3859
lradius 123.532
lwrist 38.5935
lhand -2.13359 17.0667
lfingers 7.12502
lthumb 23.5453 45.6455
rfemur -8.27767 17.9562 16.6704
rtibia 50.7962
rfoot -20.0775 -5.42599
rtoes -33.1475
lfemur -30.3027 -0.89402 -2.23912
ltibia 58.3333
lfoot -14.0411 -9.69396
ltoes -8.84031
1040
root 1.34426 17.37 0.205212 7.21608 -45.8514 -7.81035
lowerback 12.2994 2.12065 -4.37525
upperback 3.19825 2.02302 -3.27659
thorax -3.56839 0.981952 -1.26375
lowerneck -4.21225 8.58556 -6.31406
upperneck 6.17981 11.5676 5.26569
head 1.99576 5.76913 3.07035
rclavicle -1.27222e-014 -1.11319e-014
rhumerus -47.639 14.4964 -87.0096
rradius 90.8693
rwrist -15.2866
rhand -26.2509 13.038
rfingers 7.12502
rthumb 0.3034 -16.9415
lclavicle -1.27222e-014 -1.11319e-014
lhumerus -15.7768 5.843 68.9785
lradius 124.23
lwrist 38.117
lhand -2.29928 17.2062
lfingers 7.12502
lthumb 23.3863 45.8053
rfemur -8.39753 17.2086 17.1607
rtibia 51.0139
rfoot -21.7655 -7.05344
rtoes -32.9953
lfemur -30.7544 -0.626564 -1.71415
ltibia 58.3136
lfoot -15.0251 -10.9536
ltoes -8.50868
